<svg width="16" height="16" viewBox="0 0 16 16" fill="none" xmlns="http://www.w3.org/2000/svg">
<g clip-path="url(#clip0_0_1749)">
<mask id="mask0_0_1749" style="mask-type:luminance" maskUnits="userSpaceOnUse" x="0" y="0" width="16" height="16">
<path d="M8 16C12.4183 16 16 12.4183 16 8C16 3.58172 12.4183 0 8 0C3.58172 0 0 3.58172 0 8C0 12.4183 3.58172 16 8 16Z" fill="white"/>
</mask>
<g mask="url(#mask0_0_1749)">
<path d="M0 5.21561L7.90625 4.22186L16 5.21561V10.7781L7.95312 11.9469L0 10.7812V5.21561Z" fill="#D80027"/>
<path d="M0 0H16V5.21562H0V0Z" fill="#338AF3"/>
<path d="M0 10.7781H16V16H0V10.7781Z" fill="#6DA544"/>
<path d="M8.17511 10.2562C7.83177 10.2553 7.49315 10.1761 7.18499 10.0247C6.87684 9.87325 6.60724 9.65359 6.3967 9.38237C6.18615 9.11116 6.04018 8.79553 5.96988 8.45945C5.89959 8.12337 5.90681 7.7757 5.99101 7.44283C6.0752 7.10997 6.23415 6.80067 6.45579 6.53843C6.67742 6.2762 6.9559 6.06793 7.27009 5.92944C7.58427 5.79095 7.92588 5.72589 8.26897 5.7392C8.61206 5.7525 8.9476 5.84383 9.25011 6.00624C8.85866 5.62366 8.36301 5.36509 7.82527 5.26293C7.28752 5.16076 6.73159 5.21954 6.2271 5.43191C5.72261 5.64427 5.292 6.00077 4.98921 6.45676C4.68641 6.91274 4.5249 7.44794 4.5249 7.9953C4.5249 8.54266 4.68641 9.07786 4.98921 9.53384C5.292 9.98983 5.72261 10.3463 6.2271 10.5587C6.73159 10.7711 7.28752 10.8298 7.82527 10.7277C8.36301 10.6255 8.85866 10.3669 9.25011 9.98436C8.92007 10.1632 8.55052 10.2567 8.17511 10.2562Z" fill="#EEEEEE"/>
<path d="M9.91279 6.43748L10.2128 7.27498L11.019 6.89061L10.6378 7.69686L11.4784 7.99686L10.6347 8.29686L11.019 9.10311L10.2128 8.71873L9.91279 9.56248L9.61279 8.71873L8.80654 9.10311L9.19092 8.29686L8.34717 7.99686L9.19092 7.69686L8.80654 6.89061L9.61279 7.27498L9.91279 6.43748Z" fill="#EEEEEE"/>
</g>
</g>
<defs>
<clipPath id="clip0_0_1749">
<rect width="16" height="16" fill="white"/>
</clipPath>
</defs>
</svg>
