<svg width="51" height="31" viewBox="0 0 51 31" fill="none" xmlns="http://www.w3.org/2000/svg">
<path d="M25.86 29.5118C23.8277 29.5074 21.8173 29.1056 19.9497 28.3304C18.0822 27.5553 16.3961 26.4229 14.9928 25.0013L14.7876 24.7928L40.3972 18.5736L40.3172 18.8527C39.4424 21.9125 37.5555 24.6111 34.9447 26.536C32.334 28.4609 29.1432 29.5061 25.86 29.5118ZM15.4555 24.9778C17.245 26.726 19.4747 27.9932 21.9249 28.6545C24.3751 29.3159 26.9612 29.3486 29.4284 28.7494C31.8956 28.1502 34.1588 26.9398 35.995 25.2374C37.8312 23.535 39.177 21.3994 39.8997 19.0411L15.4555 24.9778Z" fill="#243C7B"/>
<path d="M12.8361 22.1995L12.7387 22.0279C11.514 19.8801 10.8714 17.4675 10.8707 15.0149C10.8707 14.5339 10.895 14.0462 10.9437 13.5686L10.975 13.286L11.2151 13.4441C12.1369 14.0462 12.8083 14.507 13.0135 14.6752C13.6292 15.1865 15.5042 16.7404 15.2433 18.6543C15.1159 19.5315 14.7322 20.3554 14.1371 21.029C13.7999 21.4202 13.4171 21.7723 12.9961 22.0784L12.8361 22.1995ZM11.2638 13.8881C11.2359 14.2648 11.2185 14.6416 11.2185 15.0183C11.2225 17.3482 11.8199 19.6412 12.9578 21.6949C13.2942 21.4335 13.602 21.1393 13.8762 20.8171C14.4352 20.1945 14.7974 19.4298 14.9198 18.6139C15.1563 16.8817 13.3892 15.4152 12.8083 14.9342C12.6135 14.7996 12.0395 14.396 11.2638 13.8881Z" fill="#243C7B"/>
<path fill-rule="evenodd" clip-rule="evenodd" d="M0.542664 6.56903L49.859 15.5497L7.47555 25.8388C7.47555 25.8388 9.75056 24.9441 10.5854 24.4699C11.4203 23.9956 12.6517 23.2119 13.2327 22.7881C13.8136 22.3643 15.6677 21.0458 15.9668 18.7518C16.266 16.4579 14.1649 14.7156 13.4762 14.137C12.7874 13.5585 7.47207 10.1411 5.91365 9.41796C4.44567 8.49298 0.528749 6.56903 0.528749 6.56903" fill="#243C7B"/>
<mask id="mask0_0_1374" style="mask-type:luminance" maskUnits="userSpaceOnUse" x="0" y="6" width="50" height="20">
<path d="M0.542664 6.56903L49.859 15.5497L7.47555 25.8388C7.47555 25.8388 9.75056 24.9441 10.5854 24.4699C11.4203 23.9956 12.6517 23.2119 13.2327 22.7881C13.8136 22.3643 15.6677 21.0458 15.9668 18.7518C16.266 16.4579 14.1649 14.7156 13.4762 14.137C12.7874 13.5585 7.47207 10.1411 5.91365 9.41796C4.44567 8.49298 0.528749 6.56903 0.528749 6.56903" fill="white"/>
</mask>
<g mask="url(#mask0_0_1374)">
<path d="M-17.6714 24.9509C5.45099 22.8924 28.3646 19.4683 50.9513 13.9655C50.6011 15.4746 50.2533 16.9837 49.9077 18.4928C21.0074 24.8601 0.85574 25.4453 -17.6714 24.9509Z" fill="#08A7E0"/>
<path d="M-13.991 22.7309C8.64009 19.2603 30.9229 13.9253 52.6141 6.78429C52.2546 8.32704 51.8975 9.87091 51.5427 11.4159C26.2844 19.0949 4.74136 22.5358 -13.991 22.7309Z" fill="#08A7E0"/>
<path d="M-10.4672 20.3731C10.7837 15.2504 32.4068 8.07254 54.3012 -0.497807C53.9394 1.05616 53.58 2.61012 53.2228 4.16408C30.0309 12.9699 8.57479 18.7653 -10.4672 20.3731Z" fill="#68CCE7"/>
<path d="M-6.95723 17.5813C14.471 11.2881 35.5376 1.82305 56.3884 -9.51886L55.063 -3.80082C30.0935 8.1869 8.93657 15.8625 -6.95723 17.5813Z" fill="#AEDFE6"/>
<path d="M-2.38981 14.6247C21.6648 3.36356 41.2216 -8.27435 58.8373 -20.104C58.341 -18.0051 57.861 -15.9006 57.3972 -13.7906C37.4021 -1.4766 17.4661 8.74525 -2.38981 14.6247Z" fill="#68CCE7"/>
<path d="M1.11664 10.9719C24.7712 -3.49138 45.2951 -18.1901 61.8707 -33.2118C61.2793 -30.6465 60.6856 -28.0812 60.0896 -25.5159C40.4702 -9.14551 20.3847 2.13249 1.11664 10.9719Z" fill="#08A7E0"/>
<path d="M63.2238 -42.364L56.531 -42.1958C48.7659 -33.0444 40.4159 -24.3718 31.5302 -16.2292C22.444 -7.85726 13.3092 -0.336349 4.17434 7.03657C24.1938 -6.03085 44.0602 -20.6623 63.2238 -42.364Z" fill="#08A7E0"/>
</g>
<path d="M40.665 13.2087L40.4285 13.165L12.6378 8.11963L12.7596 7.91781C14.3021 5.29225 16.654 3.19797 19.487 1.92735C22.32 0.656725 25.4926 0.273196 28.5619 0.830305C31.6312 1.38741 34.444 2.85735 36.6076 5.03489C38.7711 7.21243 40.1775 9.98888 40.6302 12.9766L40.665 13.2087ZM13.184 7.86063L40.2511 12.7815C39.7673 9.90901 38.3799 7.25039 36.2777 5.16749C34.1756 3.08459 31.4607 1.67857 28.5027 1.14079C25.5446 0.603 22.487 0.959569 19.746 2.16197C17.005 3.36436 14.7137 5.35419 13.184 7.86063Z" fill="#243C7B"/>
</svg>
