<svg width="16" height="16" viewBox="0 0 16 16" fill="none" xmlns="http://www.w3.org/2000/svg">
<path d="M10 15.1667H6.00004C2.38004 15.1667 0.833374 13.62 0.833374 10V6.00001C0.833374 2.38001 2.38004 0.833344 6.00004 0.833344H7.33337C7.60671 0.833344 7.83337 1.06001 7.83337 1.33334C7.83337 1.60668 7.60671 1.83334 7.33337 1.83334H6.00004C2.92671 1.83334 1.83337 2.92668 1.83337 6.00001V10C1.83337 13.0733 2.92671 14.1667 6.00004 14.1667H10C13.0734 14.1667 14.1667 13.0733 14.1667 10V8.66668C14.1667 8.39334 14.3934 8.16668 14.6667 8.16668C14.94 8.16668 15.1667 8.39334 15.1667 8.66668V10C15.1667 13.62 13.62 15.1667 10 15.1667Z" fill="#243C7B"/>
<path d="M5.66664 11.7933C5.25997 11.7933 4.88664 11.6467 4.61331 11.38C4.28664 11.0533 4.14664 10.58 4.21997 10.08L4.50664 8.07334C4.55997 7.68668 4.81331 7.18668 5.08664 6.91334L10.34 1.66001C11.6666 0.333342 13.0133 0.333342 14.34 1.66001C15.0666 2.38668 15.3933 3.12668 15.3266 3.86668C15.2666 4.46668 14.9466 5.05334 14.34 5.65334L9.08664 10.9067C8.8133 11.18 8.3133 11.4333 7.92664 11.4867L5.91997 11.7733C5.83331 11.7933 5.74664 11.7933 5.66664 11.7933ZM11.0466 2.36668L5.7933 7.62001C5.66664 7.74668 5.51997 8.04001 5.4933 8.21334L5.20664 10.22C5.17997 10.4133 5.21997 10.5733 5.31997 10.6733C5.41997 10.7733 5.57997 10.8133 5.7733 10.7867L7.77997 10.5C7.9533 10.4733 8.2533 10.3267 8.3733 10.2L13.6266 4.94668C14.06 4.51334 14.2866 4.12668 14.32 3.76668C14.36 3.33334 14.1333 2.87334 13.6266 2.36001C12.56 1.29334 11.8266 1.59334 11.0466 2.36668Z" fill="#243C7B"/>
<path d="M13.2333 6.55334C13.1866 6.55334 13.14 6.54667 13.1 6.53334C11.3466 6.04001 9.95329 4.64667 9.45996 2.89334C9.38662 2.62667 9.53996 2.35334 9.80662 2.27334C10.0733 2.20001 10.3466 2.35334 10.42 2.62001C10.82 4.04001 11.9466 5.16667 13.3666 5.56667C13.6333 5.64001 13.7866 5.92001 13.7133 6.18667C13.6533 6.41334 13.4533 6.55334 13.2333 6.55334Z" fill="#243C7B"/>
</svg>
