<svg width="20" height="20" viewBox="0 0 20 20" fill="none" xmlns="http://www.w3.org/2000/svg">
<path d="M12.5001 18.9583H7.50008C2.97508 18.9583 1.04175 17.025 1.04175 12.5V7.49996C1.04175 2.97496 2.97508 1.04163 7.50008 1.04163H12.5001C17.0251 1.04163 18.9584 2.97496 18.9584 7.49996V12.5C18.9584 17.025 17.0251 18.9583 12.5001 18.9583ZM7.50008 2.29163C3.65841 2.29163 2.29175 3.65829 2.29175 7.49996V12.5C2.29175 16.3416 3.65841 17.7083 7.50008 17.7083H12.5001C16.3417 17.7083 17.7084 16.3416 17.7084 12.5V7.49996C17.7084 3.65829 16.3417 2.29163 12.5001 2.29163H7.50008Z" fill="#787486"/>
<path d="M7.49992 8.95833C6.23325 8.95833 5.20825 7.93333 5.20825 6.66667C5.20825 5.4 6.23325 4.375 7.49992 4.375C8.76659 4.375 9.79159 5.4 9.79159 6.66667C9.79159 7.93333 8.76659 8.95833 7.49992 8.95833ZM7.49992 5.625C6.92492 5.625 6.45825 6.09167 6.45825 6.66667C6.45825 7.24167 6.92492 7.70833 7.49992 7.70833C8.07492 7.70833 8.54159 7.24167 8.54159 6.66667C8.54159 6.09167 8.07492 5.625 7.49992 5.625Z" fill="#787486"/>
<path d="M2.22497 16.4167C2.02497 16.4167 1.82497 16.3167 1.70831 16.1417C1.51664 15.8583 1.59164 15.4667 1.88331 15.275L5.99164 12.5167C6.89164 11.9083 8.13331 11.9833 8.94997 12.675L9.22497 12.9167C9.64164 13.275 10.35 13.275 10.7583 12.9167L14.225 9.94167C15.1083 9.18334 16.5 9.18334 17.3916 9.94167L18.75 11.1083C19.0083 11.3333 19.0416 11.725 18.8166 11.9917C18.5916 12.25 18.2 12.2833 17.9333 12.0583L16.575 10.8917C16.1583 10.5333 15.45 10.5333 15.0333 10.8917L11.5666 13.8667C10.6833 14.625 9.29164 14.625 8.39997 13.8667L8.12497 13.625C7.74164 13.3 7.10831 13.2667 6.68331 13.5583L2.57497 16.3167C2.46664 16.3833 2.34164 16.4167 2.22497 16.4167Z" fill="#787486"/>
</svg>
